# Blender v2.79 (sub 0) OBJ File: ''
# www.blender.org
mtllib PowerUp.mtl
o PowerUp_Icosphere.001
v 0.000000 -1.000000 0.000000
v 0.361804 -0.447220 0.262863
v -0.138194 -0.447220 0.425325
v -0.447213 -0.447216 0.000000
v -0.138194 -0.447220 -0.425325
v 0.361804 -0.447220 -0.262863
v 0.138194 0.447220 0.425325
v -0.361804 0.447220 0.262863
v -0.361804 0.447220 -0.262863
v 0.138194 0.447220 -0.425325
v 0.447213 0.447216 0.000000
v 0.000000 1.000000 0.000000
v -0.081228 -0.850654 0.249998
v 0.212661 -0.850654 0.154506
v 0.131434 -0.525738 0.404506
v 0.425324 -0.525736 0.000000
v 0.212661 -0.850654 -0.154506
v -0.262865 -0.850652 0.000000
v -0.344095 -0.525736 0.249998
v -0.081228 -0.850654 -0.249998
v -0.344095 -0.525736 -0.249998
v 0.131434 -0.525738 -0.404506
v 0.475529 0.000000 0.154506
v 0.475529 0.000000 -0.154506
v 0.000000 0.000000 0.500000
v 0.293893 0.000000 0.404508
v -0.475529 0.000000 0.154506
v -0.293893 0.000000 0.404508
v -0.293893 0.000000 -0.404508
v -0.475529 0.000000 -0.154506
v 0.293893 0.000000 -0.404508
v 0.000000 0.000000 -0.500000
v 0.344095 0.525736 0.249998
v -0.131434 0.525738 0.404506
v -0.425324 0.525736 0.000000
v -0.131434 0.525738 -0.404506
v 0.344095 0.525736 -0.249998
v 0.081228 0.850654 0.249998
v 0.262865 0.850652 0.000000
v -0.212661 0.850654 0.154506
v -0.212661 0.850654 -0.154506
v 0.081228 0.850654 -0.249998
v 0.570209 -0.007410 0.223295
v 0.456484 -0.454629 0.331652
v 0.388573 -0.007410 0.473297
v 0.573226 -0.009330 0.154506
v 0.573226 -0.009330 -0.154506
v 0.523021 -0.535066 0.000000
v 0.031851 -0.009843 0.598028
v 0.325744 -0.009843 0.502536
v 0.163286 -0.535580 0.502534
v -0.034830 -0.007136 0.607194
v -0.173024 -0.454356 0.532519
v -0.328722 -0.007136 0.511703
v -0.548621 -0.008627 0.207610
v -0.366985 -0.008627 0.457612
v -0.417187 -0.534364 0.303103
v -0.553123 -0.004913 0.154506
v -0.524807 -0.452129 0.000000
v -0.553123 -0.004913 -0.154506
v -0.357384 -0.007494 -0.450637
v -0.539020 -0.007494 -0.200635
v -0.407586 -0.533230 -0.296127
v 0.361838 -0.005318 -0.453873
v 0.429749 -0.452537 -0.312228
v 0.543475 -0.005318 -0.203871
v 0.315019 -0.006528 -0.469528
v 0.021126 -0.006528 -0.565019
v 0.152560 -0.532266 -0.469525
v -0.318646 -0.005072 -0.480691
v -0.162947 -0.452292 -0.501507
v -0.024753 -0.005072 -0.576183
v 0.305060 0.924918 0.030656
v 0.042195 1.074266 0.030656
v 0.123423 0.924921 0.280654
v 0.296130 0.909200 -0.024168
v 0.033265 1.058549 -0.024168
v 0.114493 0.909203 -0.274166
v -0.011905 1.054857 -0.036639
v -0.224566 0.905511 -0.191145
v 0.069323 0.905511 -0.286637
v -0.058556 1.083381 0.000000
v -0.271217 0.934035 0.154506
v -0.271217 0.934035 -0.154506
v -0.016038 1.073899 0.049357
v 0.065190 0.924554 0.299355
v -0.228699 0.924554 0.203863
v -0.290961 0.901902 -0.154506
v -0.290961 0.901902 0.154506
v -0.503624 0.576984 0.000000
v -0.235661 0.899368 0.225290
v 0.058228 0.899368 0.320782
v -0.154434 0.574452 0.475290
v 0.150469 0.906672 0.300305
v 0.332106 0.906670 0.050307
v 0.413336 0.581754 0.300305
v 0.315356 0.893119 -0.038137
v 0.133719 0.893121 -0.288135
v 0.396586 0.568203 -0.288136
v 0.062532 0.890251 -0.307535
v -0.231357 0.890251 -0.212043
v -0.150130 0.565335 -0.462043
vn 0.1776 -0.8184 0.5466
vn 0.8544 -0.4037 0.3271
vn -0.4650 -0.8184 0.3378
vn -0.4650 -0.8184 -0.3378
vn 0.1776 -0.8184 -0.5466
vn 0.9445 -0.1724 0.2797
vn 0.0258 -0.1724 0.9847
vn -0.9285 -0.1724 0.3288
vn -0.5997 -0.1724 -0.7815
vn 0.5579 -0.1724 -0.8118
vn 0.0511 0.9980 0.0371
vn -0.0195 0.9980 0.0601
vn -0.0632 0.9980 0.0000
vn -0.0195 0.9980 -0.0601
vn 0.0511 0.9980 -0.0371
vn 0.4990 0.4037 0.7668
vn -0.5751 0.4037 0.7115
vn -0.8544 0.4037 -0.3271
vn 0.0470 0.4037 -0.9137
vn 0.8835 0.4037 -0.2376
vn 0.6621 -0.5747 -0.4810
vn -0.3824 -0.3093 -0.8707
vn 0.4990 0.4037 -0.7668
vn -0.2529 -0.5747 -0.7783
vn -0.9462 -0.3093 0.0946
vn -0.5751 0.4037 -0.7115
vn -0.8184 -0.5747 0.0000
vn -0.2025 -0.3093 0.9292
vn -0.8544 0.4037 0.3271
vn -0.2529 -0.5747 0.7783
vn 0.8211 -0.3093 0.4797
vn 0.0470 0.4037 0.9137
vn 0.6621 -0.5747 0.4810
vn 0.7099 -0.3093 -0.6327
vn 0.8835 0.4037 0.2376
vn 0.9285 0.1724 -0.3288
vn 0.8054 0.0951 -0.5851
vn 0.5997 0.1724 -0.7815
vn -0.0258 0.1724 -0.9847
vn -0.3076 0.0951 -0.9467
vn -0.5579 0.1724 -0.8118
vn -0.9445 0.1724 -0.2797
vn -0.9955 0.0951 0.0000
vn -0.9445 0.1724 0.2797
vn -0.5579 0.1724 0.8118
vn -0.3076 0.0951 0.9467
vn -0.0258 0.1724 0.9847
vn 0.5997 0.1724 0.7815
vn 0.8054 0.0951 0.5851
vn 0.9285 0.1724 0.3288
vn 0.3084 0.0632 -0.9492
vn -0.9210 -0.2795 -0.2712
vn 0.0258 -0.1724 -0.9847
vn -0.8074 0.0632 -0.5866
vn -0.5425 -0.2795 0.7922
vn -0.9285 -0.1724 -0.3288
vn -0.8074 0.0632 0.5866
vn 0.5857 -0.2795 0.7608
vn -0.5997 -0.1724 0.7815
vn 0.3084 0.0632 0.9492
vn 0.9045 -0.2795 -0.3220
vn 0.5579 -0.1724 0.8118
vn 0.9980 0.0632 0.0000
vn -0.0267 -0.2795 -0.9598
vn 0.9445 -0.1724 -0.2797
vn 0.5751 -0.4037 -0.7115
vn 0.2586 -0.5476 -0.7958
vn -0.0470 -0.4037 -0.9137
vn -0.4990 -0.4037 -0.7668
vn -0.6769 -0.5476 -0.4918
vn -0.8835 -0.4037 -0.2376
vn -0.8835 -0.4037 0.2376
vn -0.6769 -0.5476 0.4918
vn -0.4990 -0.4037 0.7668
vn 0.8544 -0.4037 -0.3271
vn 0.8367 -0.5476 0.0000
vn 0.5747 -0.8184 0.0000
vn -0.0470 -0.4037 0.9137
vn 0.2586 -0.5476 0.7958
vn 0.5751 -0.4037 0.7115
vn 0.8074 -0.0632 0.5866
vn -0.5723 -0.3253 0.7527
vn 0.5390 -0.3253 -0.7769
vn 0.9955 -0.0951 0.0000
vn -0.0267 -0.2795 0.9598
vn 0.0951 0.9955 0.0000
vn 0.3076 -0.0951 0.9467
vn -0.9210 -0.2795 0.2712
vn 0.0294 0.9955 0.0904
vn -0.3084 -0.0632 0.9492
vn -0.8927 -0.3253 -0.3117
vn 0.9055 -0.3253 0.2726
vn -0.8054 -0.0951 0.5851
vn -0.5425 -0.2795 -0.7922
vn -0.0769 0.9955 0.0559
vn -0.9980 -0.0632 0.0000
vn 0.0206 -0.3253 -0.9454
vn 0.0206 -0.3253 0.9454
vn -0.8054 -0.0951 -0.5851
vn 0.5857 -0.2795 -0.7608
vn -0.0769 0.9955 -0.0559
vn 0.8074 -0.0632 -0.5866
vn 0.5390 -0.3253 0.7769
vn -0.5723 -0.3253 -0.7527
vn 0.3076 -0.0951 -0.9467
vn 0.9045 -0.2795 0.3220
vn 0.0294 0.9955 -0.0904
vn -0.3084 -0.0632 -0.9492
vn 0.9055 -0.3253 -0.2726
vn -0.8927 -0.3253 0.3117
vn 0.4650 0.8184 0.3378
vn -0.8436 0.2937 0.4496
vn 0.1669 0.2937 -0.9412
vn 0.4650 0.8184 -0.3378
vn -0.8436 0.2937 -0.4496
vn 0.1669 0.2937 0.9412
vn -0.1776 0.8184 -0.5466
vn 0.9467 0.2937 0.1321
vn -0.6882 0.2937 0.6634
vn -0.5747 0.8184 0.0000
vn 0.4182 0.2937 -0.8595
vn 0.4182 0.2937 0.8595
vn -0.1776 0.8184 0.5466
vn -0.6882 0.2937 -0.6634
vn 0.9467 0.2937 -0.1321
vn -0.8367 0.5476 0.0000
vn -0.2025 -0.3093 -0.9292
vn 0.5476 0.8367 0.0000
vn -0.2586 0.5476 0.7958
vn -0.9462 -0.3093 -0.0946
vn 0.1692 0.8367 -0.5208
vn 0.6769 0.5476 0.4918
vn -0.3824 -0.3093 0.8707
vn -0.4430 0.8367 -0.3219
vn 0.6769 0.5476 -0.4918
vn 0.7099 -0.3093 0.6327
vn -0.4430 0.8367 0.3219
vn -0.2586 0.5476 -0.7958
vn 0.8211 -0.3093 -0.4797
vn 0.1692 0.8367 0.5208
usemtl None
s off
f 1//1 14//1 13//1
f 2//2 14//2 16//2
f 1//3 13//3 18//3
f 1//4 18//4 20//4
f 1//5 20//5 17//5
f 2//6 16//6 23//6
f 3//7 15//7 25//7
f 4//8 19//8 27//8
f 5//9 21//9 29//9
f 6//10 22//10 31//10
f 23//11 26//11 45//11 43//11
f 25//12 28//12 54//12 52//12
f 27//13 30//13 60//13 58//13
f 29//14 32//14 72//14 70//14
f 31//15 24//15 66//15 64//15
f 7//16 33//16 38//16
f 8//17 34//17 40//17
f 9//18 35//18 41//18
f 10//19 36//19 42//19
f 11//20 37//20 39//20
f 39//21 42//21 78//21 76//21
f 37//22 42//22 98//22 99//22
f 37//23 10//23 42//23
f 42//24 41//24 80//24 81//24
f 36//25 41//25 101//25 102//25
f 36//26 9//26 41//26
f 41//27 40//27 83//27 84//27
f 35//28 40//28 89//28 90//28
f 35//29 8//29 40//29
f 40//30 38//30 86//30 87//30
f 34//31 38//31 92//31 93//31
f 34//32 7//32 38//32
f 38//33 39//33 73//33 75//33
f 33//34 39//34 95//34 96//34
f 33//35 11//35 39//35
f 24//36 37//36 11//36
f 24//37 31//37 37//37
f 31//38 10//38 37//38
f 32//39 36//39 10//39
f 32//40 29//40 36//40
f 29//41 9//41 36//41
f 30//42 35//42 9//42
f 30//43 27//43 35//43
f 27//44 8//44 35//44
f 28//45 34//45 8//45
f 28//46 25//46 34//46
f 25//47 7//47 34//47
f 26//48 33//48 7//48
f 26//49 23//49 33//49
f 23//50 11//50 33//50
f 31//51 32//51 10//51
f 22//52 32//52 68//52 69//52
f 22//53 5//53 32//53
f 29//54 30//54 9//54
f 21//55 30//55 62//55 63//55
f 21//56 4//56 30//56
f 27//57 28//57 8//57
f 19//58 28//58 56//58 57//58
f 19//59 3//59 28//59
f 25//60 26//60 7//60
f 15//61 26//61 50//61 51//61
f 15//62 2//62 26//62
f 23//63 24//63 11//63
f 16//64 24//64 47//64 48//64
f 16//65 6//65 24//65
f 17//66 22//66 6//66
f 17//67 20//67 22//67
f 20//68 5//68 22//68
f 20//69 21//69 5//69
f 20//70 18//70 21//70
f 18//71 4//71 21//71
f 18//72 19//72 4//72
f 18//73 13//73 19//73
f 13//74 3//74 19//74
f 16//75 17//75 6//75
f 16//76 14//76 17//76
f 14//77 1//77 17//77
f 13//78 15//78 3//78
f 13//79 14//79 15//79
f 14//80 2//80 15//80
f 44//81 43//81 45//81
f 26//82 2//82 44//82 45//82
f 2//83 23//83 43//83 44//83
f 46//84 48//84 47//84
f 23//85 16//85 48//85 46//85
f 24//86 23//86 46//86 47//86
f 49//87 51//87 50//87
f 25//88 15//88 51//88 49//88
f 26//89 25//89 49//89 50//89
f 53//90 52//90 54//90
f 28//91 3//91 53//91 54//91
f 3//92 25//92 52//92 53//92
f 55//93 57//93 56//93
f 27//94 19//94 57//94 55//94
f 28//95 27//95 55//95 56//95
f 59//96 58//96 60//96
f 30//97 4//97 59//97 60//97
f 4//98 27//98 58//98 59//98
f 61//99 63//99 62//99
f 29//100 21//100 63//100 61//100
f 30//101 29//101 61//101 62//101
f 65//102 64//102 66//102
f 24//103 6//103 65//103 66//103
f 6//104 31//104 64//104 65//104
f 67//105 69//105 68//105
f 31//106 22//106 69//106 67//106
f 32//107 31//107 67//107 68//107
f 71//108 70//108 72//108
f 32//109 5//109 71//109 72//109
f 5//110 29//110 70//110 71//110
f 75//111 73//111 74//111
f 12//112 38//112 75//112 74//112
f 39//113 12//113 74//113 73//113
f 76//114 78//114 77//114
f 42//115 12//115 77//115 78//115
f 12//116 39//116 76//116 77//116
f 81//117 80//117 79//117
f 12//118 42//118 81//118 79//118
f 41//119 12//119 79//119 80//119
f 84//120 83//120 82//120
f 12//121 41//121 84//121 82//121
f 40//122 12//122 82//122 83//122
f 87//123 86//123 85//123
f 12//124 40//124 87//124 85//124
f 38//125 12//125 85//125 86//125
f 88//126 90//126 89//126
f 41//127 35//127 90//127 88//127
f 40//128 41//128 88//128 89//128
f 91//129 93//129 92//129
f 40//130 34//130 93//130 91//130
f 38//131 40//131 91//131 92//131
f 94//132 96//132 95//132
f 38//133 33//133 96//133 94//133
f 39//134 38//134 94//134 95//134
f 97//135 99//135 98//135
f 39//136 37//136 99//136 97//136
f 42//137 39//137 97//137 98//137
f 100//138 102//138 101//138
f 42//139 36//139 102//139 100//139
f 41//140 42//140 100//140 101//140
